<svg version="1.1" xmlns="http://www.w3.org/2000/svg" x="0" y="0" viewBox="0 0 359 359" style="enable-background:new 0 0 359 359" xml:space="preserve"><style>.st0{fill:#ebebeb}.st1{fill:#0d0d0d}.st2,.st3{fill:#c3a25d;stroke:#0d0d0d;stroke-width:16;stroke-linecap:round;stroke-linejoin:round;stroke-miterlimit:10}.st3{fill:none}</style><path class="st0" d="M303.34 359H55.66C24.92 359 0 334.08 0 303.34V55.66C0 24.92 24.92 0 55.66 0h247.68C334.08 0 359 24.92 359 55.66v247.68c0 30.74-24.92 55.66-55.66 55.66z"/><path class="st1" d="m164.67 285.52-3.74-.75a5.52 5.52 0 0 1-3.8-2.86c-2.02-3.91-12-23.95-9.86-34.66 2.47-12.36 12.06-18.75 24.42-16.28l1.87.37c11.91 2.38 17.51 11.37 14.97 24.05-2.12 10.6-17.09 26.7-18.79 28.5-1.3 1.39-3.21 2-5.07 1.63z"/><circle class="st2" cx="105.72" cy="176.05" r="52.88"/><circle class="st2" cx="253.06" cy="202.46" r="52.88"/><circle class="st1" cx="105.72" cy="176.05" r="22.95"/><circle class="st1" cx="252.78" cy="202.38" r="20.98"/><path class="st3" d="M160.12 176.25c12.62-14.27 39.12-8.96 42.07 10.96"/><path d="m154.89 86.42.04-.05c-7.89 39.44 41.33 53.29 48.18 19.08-5.16 25.81 37.8 34.35 42.68 9.94l.89-2.03" style="fill:#2eff74"/><path class="st3" d="m121.19 73.23 31.8 6.36c-7.89 39.44 41.33 53.29 48.18 19.08-5.16 25.81 37.8 34.35 42.68 9.94l35.87 7.17"/><path class="st0" d="m245.2 198.89-2.96-2.96a2.728 2.728 0 0 1 0-3.85l2.96-2.96a2.728 2.728 0 0 1 3.85 0l2.96 2.96a2.728 2.728 0 0 1 0 3.85l-2.96 2.96a2.71 2.71 0 0 1-3.85 0zM98.34 170.27l-2.96-2.96a2.728 2.728 0 0 1 0-3.85l2.96-2.96a2.728 2.728 0 0 1 3.85 0l2.96 2.96a2.728 2.728 0 0 1 0 3.85l-2.96 2.96a2.71 2.71 0 0 1-3.85 0z"/></svg>