<svg version="1.1" id="レイヤー_1" xmlns="http://www.w3.org/2000/svg" x="0" y="0" viewBox="0 0 1280 640" xml:space="preserve">
  <style>
    .st5{fill:#212121}.st6{fill:#f6d300}.st7{fill:#fff}
  </style>
  <path d="M601.7 441c-39.7 0-72-32.3-72-72l.1-71c0-39.7 32.3-72 72-72h84c39.7 0 72 32.3 72 72v143H601.7z" fill="#c7c7c7"/>
  <path d="M647.6 441c0-60.9 49.3-110.2 110.2-110.2V441H647.6z" fill="#a8a8a8"/>
  <path d="M680.8 441c0-42.5 34.5-77 77-77v77h-77z" fill="gray"/>
  <path d="M716.3 441c0-22.9 18.6-41.5 41.5-41.5V441h-41.5z" fill="#4d4d4d"/>
  <path d="M522.2 274.2" fill="#2e1700"/>
  <g>
    <path class="st5" d="M685.7 355.3h-84c-31.5 0-57-25.5-57-57s25.5-57 57-57h84c31.5 0 57 25.5 57 57s-25.5 57-57 57z"/>
    <circle class="st6" cx="597.7" cy="298.3" r="25"/>
    <circle class="st5" cx="597.7" cy="298.3" r="12.5"/>
    <circle class="st7" cx="588.2" cy="292" r="6"/>
    <circle class="st6" cx="689.7" cy="298.3" r="25"/>
    <circle class="st5" cx="689.7" cy="298.3" r="12.5"/>
    <circle class="st7" cx="680.2" cy="292" r="6"/>
    <path class="st5" d="M567.7 288.1c23.9 2.9 49.4 4.4 76 4.4s52.1-1.6 76-4.4V267h-152v21.1z"/>
    <g>
      <path class="st5" d="M651.9 341c8.8 0 12.6 6.4 8.5 14.1l-9.1 17c-4.1 7.8-10.9 7.8-15.1 0l-9.1-17c-4.1-7.8-.3-14.1 8.5-14.1h16.3z"/>
    </g>
    <g>
      <path class="st5" d="M659.9 250.8c-6.9 7.3-4.4 13.2 5.7 13.2H690c10.1 0 18.3-8.2 18.3-18.3v-27.4c0-10.1-5.7-12.3-12.6-5l-35.8 37.5zM627.7 250.8c6.9 7.3 4.4 13.2-5.7 13.2h-24.4c-10.1 0-18.3-8.2-18.3-18.3v-27.4c0-10.1 5.7-12.3 12.6-5l35.8 37.5z"/>
    </g>
  </g>
</svg>