<svg version="1.1" xmlns="http://www.w3.org/2000/svg" x="0" y="0" viewBox="0 0 300 300" xml:space="preserve">
  <style>
    .st5{fill:#212121}.st6{fill:#f6d300}.st7{fill:#fff}
  </style>
  <path d="M115 269.3c-39.7 0-72-32.3-72-72l.1-71c0-39.7 32.3-72 72-72h84c39.7 0 72 32.3 72 72v143H115z" fill="#c7c7c7"/>
  <path d="M160.9 269.3c0-60.9 49.3-110.2 110.2-110.2v110.2H160.9z" fill="#a8a8a8"/>
  <path d="M194.1 269.3c0-42.5 34.5-77 77-77v77h-77z" fill="gray"/>
  <path d="M229.6 269.3c0-22.9 18.6-41.5 41.5-41.5v41.5h-41.5z" fill="#4d4d4d"/>
  <path d="M35.5 102.5" fill="#2e1700"/>
  <path class="st5" d="M199 183.6h-84c-31.5 0-57-25.5-57-57s25.5-57 57-57h84c31.5 0 57 25.5 57 57s-25.5 57-57 57z"/>
  <circle class="st6" cx="111" cy="126.6" r="25"/>
  <circle class="st5" cx="111" cy="126.6" r="12.5"/>
  <circle class="st7" cx="101.5" cy="120.3" r="6"/>
  <circle class="st6" cx="203" cy="126.6" r="25"/>
  <circle class="st5" cx="203" cy="126.6" r="12.5"/>
  <circle class="st7" cx="193.5" cy="120.3" r="6"/>
  <path class="st5" d="M81 116.4c23.9 2.9 49.4 4.4 76 4.4s52.1-1.6 76-4.4V95.3H81v21.1zM165.2 169.3c8.8 0 12.6 6.4 8.5 14.1l-9.1 17c-4.1 7.8-10.9 7.8-15.1 0l-9.1-17c-4.1-7.8-.3-14.1 8.5-14.1h16.3zM173.2 79.1c-6.9 7.3-4.4 13.2 5.7 13.2h24.4c10.1 0 18.3-8.2 18.3-18.3V46.6c0-10.1-5.7-12.3-12.6-5l-35.8 37.5zm-32.2 0c6.9 7.3 4.4 13.2-5.7 13.2h-24.4c-10.1 0-18.3-8.2-18.3-18.3V46.6c0-10.1 5.7-12.3 12.6-5L141 79.1z"/>
</svg>